#!OML:ASF E:\Mandelcareful walks\Project 1\Capture day 1\Session 1\Subject1.ASF
:FULLY-SPECIFIED
:DEGREES
90
root -8.4825 1.55131 1.4025 135.106 84.2093 32.12
lowerback -18.974 0.512287 -1.09261
upperback -1.59702 1.22411 -1.97823
thorax 8.9368 0.642365 -1.1947
lowerneck -15.4957 17.5218 11.6322
upperneck 19.4824 25.7619 -17.8637
head 13.1301 10.6178 -3.66914
rclavicle 1.43125e-014 2.84138e-014
rhumerus 18.2513 -42.4963 -15.0018
rradius 124.201
rwrist -33.949
rhand -18.1496 -35.1959
rfingers 7.12502
rthumb 8.12597 -65.0197
lclavicle 1.43125e-014 2.84138e-014
lhumerus 37.5729 37.4308 30.7148
lradius 114.119
lwrist 31.6275
lhand -21.3056 -14.7804
lfingers 7.12502
lthumb 5.07927 15.1387
rfemur -16.9504 -10.7208 13.4418
rtibia 16.6884
rfoot -51.2005 -40.9557
rtoes 39.7027
lfemur -26.6331 26.9236 -16.9442
ltibia 28.4911
lfoot -19.1605 34.2581
ltoes 20.2644
91
root -8.48517 1.5544 1.39684 137.171 84.3393 34.2783
lowerback -18.875 0.534844 -0.783287
upperback -1.61099 1.18006 -1.93339
thorax 8.87105 0.631497 -1.33448
lowerneck -15.4416 17.4999 11.5741
upperneck 19.5303 25.7075 -17.6948
head 13.0879 10.6067 -3.62101
rclavicle -2.38542e-015 -5.02304e-014
rhumerus 18.1721 -42.3759 -14.9118
rradius 124.155
rwrist -33.9233
rhand -18.2526 -35.1808
rfingers 7.12502
rthumb 8.02657 -65.0084
lclavicle -2.38542e-015 -5.02304e-014
lhumerus 37.5358 37.3591 30.666
lradius 114.117
lwrist 31.6884
lhand -21.3269 -14.7988
lfingers 7.12502
lthumb 5.05869 15.1208
rfemur -16.7525 -10.7835 13.6786
rtibia 16.5043
rfoot -51.1257 -41.0657
rtoes 39.3922
lfemur -26.5806 26.9175 -16.6323
ltibia 28.6476
lfoot -19.228 33.8527
ltoes 19.8027
92
root -8.48883 1.55737 1.3904 135.965 84.145 33.0665
lowerback -18.8774 0.469222 -0.991636
upperback -1.65434 1.14414 -1.99415
thorax 8.82161 0.608776 -1.29087
lowerneck -15.3571 17.4938 11.6145
upperneck 19.5243 25.6765 -17.6378
head 13.0583 10.6068 -3.62051
rclavicle -6.36111e-015 -4.94104e-014
rhumerus 18.2915 -42.3443 -14.8804
rradius 123.975
rwrist -33.9889
rhand -18.3272 -35.1083
rfingers 7.12502
rthumb 7.95457 -64.9386
lclavicle -6.36111e-015 -4.94104e-014
lhumerus 37.4157 37.3326 30.4839
lradius 114.097
lwrist 31.7945
lhand -21.4211 -14.7793
lfingers 7.12502
lthumb 4.96777 15.1425
rfemur -16.701 -11.07 13.4413
rtibia 16.41
rfoot -50.9092 -40.9619
rtoes 39.3667
lfemur -26.5563 26.7161 -16.8401
ltibia 28.7595
lfoot -19.7425 33.4132
ltoes 21.3561
93
root -8.49378 1.56242 1.38552 134.481 83.9985 31.7119
lowerback -18.6874 0.444638 -1.18864
upperback -1.6644 1.15021 -2.02318
thorax 8.70294 0.60513 -1.20947
lowerneck -15.2297 17.4478 11.5725
upperneck 19.3737 25.5999 -17.6527
head 12.9564 10.5898 -3.64821
rclavicle -7.39479e-014 -1.59326e-013
rhumerus 18.5916 -42.3658 -14.7784
rradius 123.661
rwrist -34.0697
rhand -18.2972 -35.1242
rfingers 7.12502
rthumb 7.98347 -64.9534
lclavicle -7.39479e-014 -1.59326e-013
lhumerus 37.3112 37.2786 30.419
lradius 114.071
lwrist 31.7111
lhand -21.4634 -14.668
lfingers 7.12502
lthumb 4.92689 15.2547
rfemur -16.5994 -11.2187 13.2097
rtibia 16.47
rfoot -50.9212 -40.6679
rtoes 39.4942
lfemur -26.3507 26.5348 -16.956
ltibia 28.7875
lfoot -19.6179 33.4032
ltoes 22.564
94
root -8.49155 1.56667 1.38095 131.478 83.6178 28.7769
lowerback -18.4585 0.354652 -1.64769
upperback -1.72632 1.13111 -2.14172
thorax 8.5032 0.583772 -1.08225
lowerneck -15.1796 17.4538 11.6056
upperneck 19.3023 25.6112 -17.7256
head 12.9387 10.5985 -3.6783
rclavicle 1.18476e-013 1.21172e-013
rhumerus 18.9608 -42.3602 -14.7983
rradius 123.375
rwrist -34.2039
rhand -18.188 -35.1899
rfingers 7.12502
rthumb 8.08889 -65.0151
lclavicle 1.18476e-013 1.21172e-013
lhumerus 37.1313 37.2567 30.2542
lradius 113.991
lwrist 31.6222
lhand -21.4023 -14.5859
lfingers 7.12502
lthumb 4.98592 15.3354
rfemur -16.6015 -11.332 12.6526
rtibia 16.5725
rfoot -50.8144 -40.6527
rtoes 39.3473
lfemur -26.2019 26.4204 -17.4605
ltibia 28.8008
lfoot -19.1012 33.4079
ltoes 23.2318
95
root -8.49191 1.57077 1.37874 129.958 83.505 27.298
lowerback -18.2352 0.345585 -1.81063
upperback -1.77872 1.14646 -2.16723
thorax 8.32067 0.587443 -1.01415
lowerneck -15.5282 17.4545 11.3872
upperneck 19.4214 25.6367 -17.6073
head 13.0044 10.5772 -3.57661
rclavicle -5.32743e-014 -1.07766e-013
rhumerus 19.1101 -42.4011 -14.7156
rradius 123.184
rwrist -34.362
rhand -18.0926 -35.2269
rfingers 7.12502
rthumb 8.181 -65.0485
lclavicle -5.32743e-014 -1.07766e-013
lhumerus 37.0562 37.1786 30.262
lradius 113.922
lwrist 31.6251
lhand -21.4332 -14.69
lfingers 7.12502
lthumb 4.95604 15.2321
rfemur -16.6131 -11.0878 12.4153
rtibia 16.6486
rfoot -51.0403 -40.6102
rtoes 39.4713
lfemur -26.0707 26.3904 -17.6061
ltibia 28.8706
lfoot -19.2648 32.9723
ltoes 25.1936
96
root -8.49545 1.57351 1.378 130.09 83.7763 27.5726
lowerback -17.9483 0.41976 -1.55957
upperback -1.82851 1.17599 -2.1015
thorax 8.11182 0.609448 -1.08012
lowerneck -15.954 17.4586 11.2089
upperneck 19.6222 25.6585 -17.4377
head 13.1134 10.5504 -3.45769
rclavicle -1.51076e-014 2.62023e-014
rhumerus 19.0489 -42.2548 -14.6601
rradius 123.081
rwrist -34.3278
rhand -18.1502 -35.22
rfingers 7.12502
rthumb 8.12533 -65.0438
lclavicle -1.51076e-014 2.62023e-014
lhumerus 36.9564 36.9909 30.2538
lradius 113.908
lwrist 31.5863
lhand -21.5198 -14.81
lfingers 7.12502
lthumb 4.87242 15.1139
rfemur -16.5117 -10.6084 12.6194
rtibia 16.6764
rfoot -51.2932 -40.7046
rtoes 39.8563
lfemur -25.8275 26.4609 -17.1953
ltibia 29.0053
lfoot -19.3891 32.4566
ltoes 27.081
97
root -8.49659 1.5743 1.37295 129.944 83.9273 27.4673
lowerback -17.8063 0.420232 -1.39462
upperback -1.96191 1.14005 -2.11281
thorax 7.89163 0.600193 -1.19527
lowerneck -16.3763 17.5197 11.3631
upperneck 20.1309 25.7499 -17.2598
head 13.4071 10.5501 -3.36297
rclavicle 2.94201e-014 2.86312e-014
rhumerus 18.9153 -41.861 -14.8367
rradius 123.094
rwrist -34.0809
rhand -18.2611 -35.1866
rfingers 7.12502
rthumb 8.01836 -65.0145
lclavicle 2.94201e-014 2.86312e-014
lhumerus 36.6835 36.8127 29.9161
lradius 113.808
lwrist 31.5894
lhand -21.8477 -14.8745
lfingers 7.12502
lthumb 4.55581 15.0565
rfemur -16.4581 -10.3729 12.6929
rtibia 16.634
rfoot -51.4666 -40.6136
rtoes 40.4869
lfemur -25.7258 26.5641 -17.008
ltibia 29.2039
lfoot -19.147 32.0733
ltoes 27.754
98
root -8.4952 1.57723 1.36576 130.338 84.0823 27.8201
lowerback -17.7086 0.442482 -1.21055
upperback -2.13179 1.1295 -2.095
thorax 7.6566 0.603562 -1.28329
lowerneck -16.4081 17.4354 11.4265
upperneck 19.5316 25.589 -17.6083
head 13.2194 10.4967 -3.52631
rclavicle 9.46215e-014 6.349e-014
rhumerus 18.6145 -41.5108 -14.8203
rradius 123.138
rwrist -33.8066
rhand -18.3446 -35.2202
rfingers 7.12502
rthumb 7.93773 -65.0512
lclavicle 9.46215e-014 6.349e-014
lhumerus 36.589 36.5728 29.805
lradius 113.596
lwrist 31.5255
lhand -22.2059 -14.9964
lfingers 7.12502
lthumb 4.20998 14.9417
rfemur -16.5005 -10.2108 12.8077
rtibia 16.6391
rfoot -51.5287 -40.6696
rtoes 40.4439
lfemur -25.7347 26.7641 -16.8937
ltibia 29.3907
lfoot -18.8813 31.6978
ltoes 27.8619
